<svg xmlns="http://www.w3.org/2000/svg" xmlns:xlink="http://www.w3.org/1999/xlink" width="233" height="35" viewBox="0 0 233 35">
    <defs>
        <path id="ozkjovxq3a" d="M0 33.171L232.6 33.171 232.6 0.687 0 0.687z"/>
    </defs>
    <g fill="none" fill-rule="evenodd">
        <g>
            <g>
                <path fill="#FFF" d="M80.773 19.341L77.504 24.644 74.236 19.341 70.224 19.341 70.224 33.04 73.961 33.04 73.961 25.211 77.436 30.536 77.514 30.536 81.007 25.173 81.007 33.04 84.785 33.04 84.785 19.341zM92.46 19.242L86.628 33.04h3.992l.978-2.446h5.285l.999 2.446h4.071L96.12 19.242h-3.66zm1.802 4.52l1.525 3.895h-3.072l1.547-3.895z" transform="translate(-165 -14) translate(165 14)"/>
                <g transform="translate(-165 -14) translate(165 14) translate(0 .143)">
                    <path fill="#FFF" d="M110.388 25.772c.653 0 1.156-.146 1.507-.44.352-.293.529-.687.529-1.183v-.04c0-.548-.183-.955-.547-1.222-.366-.268-.869-.402-1.507-.402h-2.487v3.287h2.505zm-6.301-6.574h6.478c1.056 0 1.95.13 2.68.39.731.262 1.325.627 1.783 1.096.808.785 1.212 1.848 1.212 3.191v.04c0 1.056-.254 1.93-.763 2.622-.509.69-1.194 1.219-2.055 1.585l3.269 4.775h-4.385l-2.759-4.148H107.883v4.148h-3.796V19.198zM118.888 19.198L122.685 19.198 122.685 24.756 127.401 19.198 131.903 19.198 126.716 25.089 132.078 32.898 127.518 32.898 124.074 27.808 122.685 29.356 122.685 32.898 118.888 32.898zM134.366 19.198L145.366 19.198 145.366 22.426 138.104 22.426 138.104 24.502 144.68 24.502 144.68 27.495 138.104 27.495 138.104 29.667 145.462 29.667 145.462 32.898 134.366 32.898zM151.957 22.525L147.848 22.525 147.848 19.198 159.864 19.198 159.864 22.525 155.753 22.525 155.753 32.898 151.957 32.898z"/>
                    <mask id="m8uuk64n0b" fill="#fff">
                        <use xlink:href="#ozkjovxq3a"/>
                    </mask>
                    <path fill="#FFF" d="M162.797 32.898L166.614 32.898 166.614 19.198 162.797 19.198zM170.31 19.198L173.859 19.198 179.509 26.439 179.509 19.198 183.247 19.198 183.247 32.898 179.913 32.898 174.048 25.382 174.048 32.898 170.31 32.898zM192.66 33.17c-1.07 0-2.058-.172-2.965-.517-.908-.346-1.693-.832-2.36-1.458-.664-.627-1.186-1.373-1.564-2.241-.38-.868-.568-1.823-.568-2.867v-.04c0-.992.184-1.921.555-2.79.37-.866.88-1.624 1.529-2.27.648-.645 1.426-1.151 2.331-1.517.906-.364 1.887-.547 2.944-.547 1.214 0 2.26.177 3.141.53.88.35 1.686.84 2.418 1.466L195.89 23.6c-.496-.417-1-.737-1.518-.958-.514-.222-1.112-.333-1.79-.333-.495 0-.956.099-1.379.293-.425.196-.794.463-1.106.803-.314.339-.562.737-.743 1.194-.184.456-.275.946-.275 1.467v.04c0 .548.091 1.057.276 1.526.182.47.44.872.775 1.204.333.333.726.594 1.178.782.45.19.952.285 1.502.285.89 0 1.624-.189 2.2-.568v-1.663h-2.702v-2.78h6.303v6.166c-.73.6-1.592 1.103-2.583 1.506-.993.404-2.115.607-3.367.607M75.82 8.12c.679 0 1.21-.16 1.595-.482.386-.32.577-.756.577-1.307v-.04c0-.59-.191-1.04-.577-1.348-.385-.308-.922-.463-1.613-.463H74.02v3.64h1.8zm-5.596-6.809h5.87c.86 0 1.645.106 2.35.322.703.215 1.304.528 1.8.94.496.41.878.916 1.145 1.516.266.6.4 1.279.4 2.035v.04c0 .81-.146 1.52-.439 2.134-.294.612-.702 1.127-1.224 1.545-.522.418-1.144.73-1.87.94-.724.208-1.51.313-2.358.313H74.02v3.915h-3.796V1.31zM84.214 1.311L95.213 1.311 95.213 4.54 87.952 4.54 87.952 6.615 94.528 6.615 94.528 9.608 87.952 9.608 87.952 11.78 95.31 11.78 95.31 15.01 84.214 15.01zM104.76 7.885c.652 0 1.155-.146 1.507-.44.352-.293.528-.688.528-1.183v-.04c0-.548-.183-.955-.547-1.223-.365-.267-.869-.401-1.507-.401h-2.486v3.287h2.505zm-6.303-6.574h6.479c1.056 0 1.95.13 2.68.39.731.262 1.325.627 1.783 1.097.807.783 1.212 1.846 1.212 3.19v.04c0 1.056-.254 1.93-.763 2.622-.508.69-1.194 1.219-2.055 1.585l3.268 4.775h-4.383l-2.76-4.148h-1.663v4.148h-3.798V1.31zM113.72 1.311L124.679 1.311 124.679 4.638 117.516 4.638 117.516 6.946 123.994 6.946 123.994 10.117 117.516 10.117 117.516 15.01 113.72 15.01zM133.321 11.86c.522 0 1-.1 1.432-.294.431-.197.798-.46 1.099-.794.302-.332.536-.72.706-1.164.17-.444.257-.913.257-1.409V8.16c0-.496-.087-.965-.257-1.409-.17-.444-.412-.836-.725-1.174-.314-.34-.687-.61-1.12-.813-.43-.201-.909-.302-1.432-.302-.524 0-.997.097-1.423.293-.425.195-.791.46-1.1.792-.307.333-.542.72-.705 1.164-.164.444-.246.913-.246 1.41v.04c0 .494.086.965.255 1.407.17.444.41.836.717 1.176.307.338.677.609 1.108.811.431.203.909.304 1.434.304m-.03 3.424c-1.057 0-2.036-.185-2.935-.557-.901-.373-1.677-.878-2.33-1.517-.652-.639-1.164-1.39-1.537-2.25-.371-.862-.557-1.78-.557-2.76V8.16c0-.98.186-1.902.557-2.769.373-.868.892-1.624 1.557-2.27.664-.646 1.449-1.156 2.348-1.528.901-.371 1.88-.557 2.937-.557 1.056 0 2.035.186 2.935.557.901.372 1.676.878 2.328 1.517.653.64 1.165 1.39 1.538 2.251.371.862.557 1.782.557 2.76v.04c0 .978-.186 1.9-.557 2.769-.373.866-.892 1.624-1.557 2.27-.666.646-1.448 1.153-2.347 1.526-.902.372-1.881.557-2.937.557M148.967 7.885c.653 0 1.155-.146 1.507-.44.352-.293.529-.688.529-1.183v-.04c0-.548-.183-.955-.548-1.223-.365-.267-.868-.401-1.506-.401h-2.487v3.287h2.505zm-6.302-6.574h6.479c1.056 0 1.95.13 2.68.39.73.262 1.325.627 1.782 1.097.808.783 1.212 1.846 1.212 3.19v.04c0 1.056-.254 1.93-.763 2.622-.508.69-1.193 1.219-2.055 1.585l3.27 4.775h-4.385l-2.759-4.148H146.462v4.148h-3.797V1.31zM157.929 1.311L161.941 1.311 165.209 6.615 168.478 1.311 172.49 1.311 172.49 15.01 168.712 15.01 168.712 7.143 165.219 12.505 165.141 12.505 161.666 7.181 161.666 15.01 157.929 15.01zM183.651 9.627l-1.526-3.895-1.545 3.895h3.071zm-3.327-8.414h3.66l5.833 13.797h-4.072l-.997-2.446h-5.285l-.977 2.446h-3.993l5.831-13.797zM191.853 1.311L195.402 1.311 201.052 8.552 201.052 1.311 204.791 1.311 204.791 15.01 201.456 15.01 195.592 7.495 195.592 15.01 191.853 15.01zM213.813 15.283c-.98 0-1.9-.176-2.76-.528-.86-.353-1.608-.844-2.24-1.477-.634-.632-1.135-1.383-1.508-2.252-.372-.866-.558-1.81-.558-2.827v-.04c0-.99.182-1.92.548-2.788.366-.868.869-1.625 1.507-2.27.64-.647 1.4-1.152 2.28-1.517.88-.364 1.843-.548 2.887-.548.704 0 1.344.068 1.918.205.574.138 1.1.333 1.575.587.476.256.907.558 1.292.91.386.352.728.738 1.029 1.156l-2.859 2.212c-.391-.496-.822-.889-1.292-1.175-.47-.287-1.037-.43-1.702-.43-.483 0-.923.094-1.321.283-.398.19-.741.448-1.027.773-.289.325-.513.71-.676 1.155-.162.443-.245.913-.245 1.408v.04c0 .509.083.988.245 1.438.163.45.387.839.676 1.165.286.326.629.584 1.027.773.398.19.838.284 1.321.284.352 0 .675-.04.97-.118.293-.078.56-.192.8-.342.241-.15.472-.327.686-.528.215-.203.427-.428.636-.676l2.857 2.035c-.326.444-.681.855-1.066 1.235-.385.378-.822.704-1.312.976-.489.276-1.036.49-1.643.646-.607.157-1.29.235-2.045.235M221.504 1.311L232.503 1.311 232.503 4.54 225.242 4.54 225.242 6.615 231.818 6.615 231.818 9.608 225.242 9.608 225.242 11.78 232.6 11.78 232.6 15.01 221.504 15.01zM17.117 12.487c0 .649-.123 1.261-.37 1.837-.247.576-.59 1.078-1.032 1.506-.442.429-.961.767-1.559 1.014-.597.246-1.246.37-1.947.37-.702 0-1.351-.124-1.948-.37-.597-.247-1.113-.582-1.545-1.007-.433-.425-.773-.922-1.02-1.494-.245-.57-.37-1.181-.37-1.83v-.026c0-.65.125-1.262.37-1.838.247-.575.591-1.078 1.032-1.506.442-.429.962-.766 1.56-1.012.596-.248 1.246-.37 1.947-.37.7 0 1.35.122 1.948.37.597.246 1.112.582 1.544 1.005.434.425.773.923 1.02 1.494s.37 1.182.37 1.831v.026zM23.52 7.85c-.617-1.426-1.464-2.67-2.546-3.728-1.079-1.06-2.366-1.897-3.857-2.513-1.49-.616-3.114-.923-4.862-.923-1.753 0-3.372.307-4.863.923-1.493.616-2.788 1.459-3.891 2.528C2.399 5.208 1.54 6.461.923 7.9.308 9.337 0 10.866 0 12.487v.065c0 1.62.308 3.144.923 4.571.618 1.426 1.464 2.669 2.546 3.728 1.08 1.059 2.367 1.897 3.857 2.512 1.491.617 3.113.924 4.863.924 1.751 0 3.371-.307 4.862-.924 1.494-.615 2.789-1.458 3.89-2.528 1.104-1.07 1.962-2.323 2.58-3.76.614-1.439.923-2.968.923-4.588v-.066c0-1.621-.31-3.144-.924-4.57zM27.927 1.318L37.177 1.318 44.713 13.548 52.249 1.318 61.499 1.318 61.499 32.906 52.792 32.906 52.792 14.765 44.735 27.129 44.555 27.129 36.546 14.856 36.546 32.906 27.927 32.906zM23.812 32.906c0-3.044-2.469-5.512-5.512-5.512H6.144c-3.045 0-5.512 2.468-5.512 5.512h23.18z" mask="url(#m8uuk64n0b)"/>
                </g>
            </g>
        </g>
    </g>
</svg>
