<?xml version="1.0" encoding="UTF-8"?>
<svg width="234px" height="34px" viewBox="0 0 234 34" version="1.1" xmlns="http://www.w3.org/2000/svg" xmlns:xlink="http://www.w3.org/1999/xlink">
    <title>om-full-logo-color</title>
    <defs>
        <polygon id="path-1" points="0 33.1707317 232.599805 33.1707317 232.599805 0.686634146 0 0.686634146"></polygon>
    </defs>
    <g id="Symbols" stroke="none" stroke-width="1" fill="none" fill-rule="evenodd">
        <g id="Main-Nav-/-White-/-Desktop" transform="translate(-165.000000, -14.000000)">
            <g id="om-full-logo-color" transform="translate(165.000000, 14.000000)">
                <polygon id="Fill-1" fill="#0D2132" points="80.7728049 19.3405268 77.5038293 24.6436976 74.2356829 19.3405268 70.2236829 19.3405268 70.2236829 33.040039 73.9611951 33.040039 73.9611951 25.2109171 77.4358293 30.5356488 77.5137805 30.5356488 81.0074878 25.1727707 81.0074878 33.040039 84.7848049 33.040039 84.7848049 19.3405268"></polygon>
                <path d="M92.4597659,19.2420098 L86.627522,33.0402049 L90.6204488,33.0402049 L91.5981561,30.5938634 L96.8830829,30.5938634 L97.881522,33.0402049 L101.953229,33.0402049 L96.1201561,19.2420098 L92.4597659,19.2420098 Z M94.2617659,23.7623512 L95.7867902,27.6574244 L92.7151805,27.6574244 L94.2617659,23.7623512 Z" id="Fill-2" fill="#0D2132"></path>
                <g id="Group-29" transform="translate(0.000000, 0.142800)">
                    <path d="M110.388132,25.7724146 C111.040766,25.7724146 111.544132,25.6264634 111.894912,25.3329024 C112.247351,25.0393415 112.423985,24.6446098 112.423985,24.1487073 L112.423985,24.1097317 C112.423985,23.5607561 112.240717,23.1544146 111.876668,22.886561 C111.510961,22.6187073 111.008424,22.4851951 110.369888,22.4851951 L107.882912,22.4851951 L107.882912,25.7724146 L110.388132,25.7724146 Z M104.086522,19.1979756 L110.564766,19.1979756 C111.621254,19.1979756 112.515205,19.3273415 113.24579,19.5877317 C113.976376,19.8497805 114.570132,20.2146585 115.027888,20.6840244 C115.835595,21.4685122 116.240278,22.5316341 116.240278,23.8750488 L116.240278,23.9148537 C116.240278,24.9713415 115.985693,25.844561 115.476522,26.537 C114.96818,27.2277805 114.283205,27.7560244 113.421595,28.1217317 L116.690571,32.8974878 L112.306229,32.8974878 L109.547254,28.7486585 L109.507449,28.7486585 L107.882912,28.7486585 L107.882912,32.8974878 L104.086522,32.8974878 L104.086522,19.1979756 Z" id="Fill-3" fill="#0D2132"></path>
                    <polygon id="Fill-5" fill="#0D2132" points="118.888132 19.1978098 122.684522 19.1978098 122.684522 24.7555659 127.4014 19.1978098 131.902668 19.1978098 126.715595 25.0889317 132.078473 32.8981512 127.518327 32.8981512 124.074376 27.8081024 122.684522 29.3555171 122.684522 32.8981512 118.888132 32.8981512"></polygon>
                    <polygon id="Fill-7" fill="#0D2132" points="134.365678 19.1978098 145.365922 19.1978098 145.365922 22.4261512 138.10402 22.4261512 138.10402 24.5018098 144.680117 24.5018098 144.680117 27.4954683 138.10402 27.4954683 138.10402 29.667322 145.462117 29.667322 145.462117 32.8981512 134.365678 32.8981512"></polygon>
                    <polygon id="Fill-9" fill="#0D2132" points="151.956863 22.5245854 147.847839 22.5245854 147.847839 19.197561 159.863937 19.197561 159.863937 22.5245854 155.753254 22.5245854 155.753254 32.8979024 151.956863 32.8979024"></polygon>
                    <mask id="mask-2" fill="white">
                        <use xlink:href="#path-1"></use>
                    </mask>
                    <g id="Clip-12"></g>
                    <polygon id="Fill-11" fill="#0D2132" mask="url(#mask-2)" points="162.796976 32.8979024 166.614098 32.8979024 166.614098 19.197561 162.796976 19.197561"></polygon>
                    <polygon id="Fill-13" fill="#0D2132" mask="url(#mask-2)" points="170.310063 19.1978098 173.859332 19.1978098 179.509137 26.4389805 179.509137 19.1978098 183.247478 19.1978098 183.247478 32.8981512 179.91299 32.8981512 174.048405 25.3824927 174.048405 32.8981512 170.310063 32.8981512"></polygon>
                    <path d="M192.659839,33.1706488 C191.590083,33.1706488 190.601595,32.998161 189.695205,32.6531854 C188.787156,32.3065512 188.001839,31.8206 187.335937,31.1953317 C186.670863,30.5684049 186.149254,29.8220634 185.771107,28.9538195 C185.391302,28.0864049 185.203059,27.1310878 185.203059,26.087039 L185.203059,26.0472341 C185.203059,25.0554293 185.387156,24.1258195 185.757839,23.2575756 C186.127693,22.3909902 186.637693,21.633039 187.28701,20.9878683 C187.935498,20.3418683 188.713351,19.8360146 189.618083,19.4703073 C190.523644,19.1062585 191.504668,18.9229902 192.561985,18.9229902 C193.776034,18.9229902 194.822571,19.0996244 195.703254,19.4520634 C196.583107,19.8036732 197.389156,20.2929415 198.1214,20.919039 L195.88901,23.6000634 C195.393107,23.1829415 194.888912,22.8628439 194.371449,22.6422585 C193.857302,22.4200146 193.2594,22.3088927 192.581059,22.3088927 C192.085985,22.3088927 191.624912,22.4075756 191.201985,22.6024537 C190.7774,22.798161 190.408376,23.0651854 190.095741,23.4051854 C189.782278,23.7435268 189.534327,24.1424049 189.352717,24.5985024 C189.169449,25.0554293 189.078229,25.5446976 189.078229,26.0663073 L189.078229,26.1052829 C189.078229,26.6542585 189.169449,27.1626 189.353546,27.6319659 C189.535985,28.1013317 189.794717,28.5035268 190.128912,28.8360634 C190.462278,29.1694293 190.855351,29.4298195 191.307302,29.6180634 C191.757595,29.8079659 192.259302,29.9025024 192.809107,29.9025024 C193.698912,29.9025024 194.432815,29.7142585 195.008327,29.3352829 L195.008327,27.6717707 L192.3074,27.6717707 L192.3074,24.8920634 L198.609839,24.8920634 L198.609839,31.0576732 C197.879254,31.6580634 197.017644,32.1606 196.027498,32.5644537 C195.034034,32.9683073 193.912034,33.1706488 192.659839,33.1706488" id="Fill-14" fill="#0D2132" mask="url(#mask-2)"></path>
                    <path d="M75.8204146,8.1201122 C76.4987561,8.1201122 77.0303171,7.96089268 77.4150976,7.63830732 C77.8007073,7.31738049 77.9922683,6.88201463 77.9922683,6.33055122 L77.9922683,6.29074634 C77.9922683,5.70113659 77.8007073,5.2508439 77.4150976,4.94318537 C77.0303171,4.63469756 76.4929512,4.48045366 75.8021707,4.48045366 L74.0200732,4.48045366 L74.0200732,8.1201122 L75.8204146,8.1201122 Z M70.2236829,1.31099024 L76.0949024,1.31099024 C76.9548537,1.31099024 77.7385122,1.41713659 78.4433902,1.63274634 C79.147439,1.8483561 79.7478293,2.16099024 80.2437317,2.57230732 C80.7396341,2.98279512 81.1219268,3.48947805 81.3889512,4.08903902 C81.6551463,4.68942927 81.7886585,5.36777073 81.7886585,6.12406341 L81.7886585,6.16386829 C81.7886585,6.97323415 81.6427073,7.6830878 81.3499756,8.29757561 C81.0555854,8.91040488 80.6475854,9.42538049 80.1259756,9.84333171 C79.6035366,10.2612829 78.9815854,10.5730878 78.2568049,10.7820634 C77.5320244,10.991039 76.745878,11.0963561 75.8983659,11.0963561 L74.0200732,11.0963561 L74.0200732,15.0105024 L70.2236829,15.0105024 L70.2236829,1.31099024 Z" id="Fill-15" fill="#0D2132" mask="url(#mask-2)"></path>
                    <polygon id="Fill-16" fill="#0D2132" mask="url(#mask-2)" points="84.213522 1.31057561 95.2129366 1.31057561 95.2129366 4.53974634 87.9518634 4.53974634 87.9518634 6.61457561 94.527961 6.61457561 94.527961 9.60823415 87.9518634 9.60823415 87.9518634 11.7800878 95.309961 11.7800878 95.309961 15.0100878 84.213522 15.0100878"></polygon>
                    <path d="M104.759805,7.88526341 C105.412439,7.88526341 105.914976,7.7393122 106.266585,7.44575122 C106.619024,7.15219024 106.794829,6.75745854 106.794829,6.2615561 L106.794829,6.22258049 C106.794829,5.67360488 106.611561,5.26726341 106.247512,4.99940976 C105.882634,4.7315561 105.379268,4.5980439 104.740732,4.5980439 L102.254585,4.5980439 L102.254585,7.88526341 L104.759805,7.88526341 Z M98.4573659,1.31082439 L104.93561,1.31082439 C105.992098,1.31082439 106.886049,1.44019024 107.616634,1.70058049 C108.34722,1.96345854 108.940976,2.32750732 109.398732,2.79770244 C110.206439,3.58136098 110.611122,4.64448293 110.611122,5.98789756 L110.611122,6.02770244 C110.611122,7.08419024 110.356537,7.95740976 109.848195,8.64984878 C109.339854,9.34062927 108.654049,9.86887317 107.793268,10.2345805 L111.061415,15.0103366 L106.677902,15.0103366 L103.918098,10.8615073 L103.879122,10.8615073 L102.254585,10.8615073 L102.254585,15.0103366 L98.4573659,15.0103366 L98.4573659,1.31082439 Z" id="Fill-17" fill="#0D2132" mask="url(#mask-2)"></path>
                    <polygon id="Fill-18" fill="#0D2132" mask="url(#mask-2)" points="113.7198 1.31057561 124.67941 1.31057561 124.67941 4.6376 117.51619 4.6376 117.51619 6.94628293 123.994434 6.94628293 123.994434 10.1174049 117.51619 10.1174049 117.51619 15.0100878 113.7198 15.0100878"></polygon>
                    <path d="M133.320966,11.8594488 C133.843405,11.8594488 134.321063,11.7607659 134.753112,11.5658878 C135.184332,11.3693512 135.550868,11.1056439 135.851893,10.772278 C136.153746,10.4397415 136.388429,10.0516439 136.558429,9.60798537 C136.7276,9.16432683 136.814673,8.69496098 136.814673,8.19905854 L136.814673,8.16008293 C136.814673,7.66418049 136.7276,7.19481463 136.558429,6.7511561 C136.388429,6.30749756 136.146283,5.91525366 135.83282,5.5769122 C135.518527,5.2369122 135.146185,4.96657073 134.713307,4.76422927 C134.282088,4.56271707 133.804429,4.46154634 133.281161,4.46154634 C132.757063,4.46154634 132.283551,4.55857073 131.858137,4.75510732 C131.432722,4.94998537 131.067015,5.21535122 130.758527,5.54705854 C130.450868,5.87959512 130.216185,6.26769268 130.05282,6.71135122 C129.888624,7.15500976 129.807356,7.62437561 129.807356,8.12027805 L129.807356,8.16008293 C129.807356,8.6551561 129.892771,9.12618049 130.061941,9.56818049 C130.232771,10.011839 130.4716,10.4040829 130.779259,10.7440829 C131.086088,11.0824244 131.455941,11.3527659 131.887161,11.5551073 C132.31838,11.758278 132.796039,11.8594488 133.320966,11.8594488 M133.291112,15.2826683 C132.233795,15.2826683 131.255259,15.0977415 130.355502,14.7262293 C129.454917,14.3530585 128.678722,13.8480341 128.026088,13.2094976 C127.374283,12.5701317 126.861795,11.8196439 126.489454,10.9588634 C126.117941,10.0972537 125.932185,9.17842439 125.932185,8.19905854 L125.932185,8.16008293 C125.932185,7.18071707 126.117941,6.25774146 126.489454,5.3911561 C126.861795,4.5229122 127.380917,3.76661951 128.04599,3.12061951 C128.710234,2.47544878 129.494722,1.96544878 130.394478,1.59310732 C131.295063,1.22159512 132.2736,1.03583902 133.330917,1.03583902 C134.386576,1.03583902 135.365941,1.22159512 136.265698,1.59310732 C137.167112,1.96544878 137.941649,2.47130244 138.594283,3.10983902 C139.246917,3.75003415 139.759405,4.49969268 140.131746,5.36130244 C140.503259,6.2229122 140.689015,7.14257073 140.689015,8.12027805 L140.689015,8.16008293 C140.689015,9.13861951 140.503259,10.0615951 140.131746,10.929839 C139.759405,11.7964244 139.240283,12.5543756 138.57521,13.2003756 C137.909307,13.8455463 137.127307,14.3530585 136.227551,14.7262293 C135.326137,15.0977415 134.346771,15.2826683 133.291112,15.2826683" id="Fill-19" fill="#0D2132" mask="url(#mask-2)"></path>
                    <path d="M148.966937,7.88526341 C149.619571,7.88526341 150.122107,7.7393122 150.473717,7.44575122 C150.826156,7.15219024 151.00279,6.75745854 151.00279,6.2615561 L151.00279,6.22258049 C151.00279,5.67360488 150.819522,5.26726341 150.455473,4.99940976 C150.089766,4.7315561 149.587229,4.5980439 148.948693,4.5980439 L146.461717,4.5980439 L146.461717,7.88526341 L148.966937,7.88526341 Z M142.665327,1.31082439 L149.143571,1.31082439 C150.200059,1.31082439 151.09401,1.44019024 151.824595,1.70058049 C152.554351,1.96345854 153.148937,2.32750732 153.605863,2.79770244 C154.413571,3.58136098 154.818254,4.64448293 154.818254,5.98789756 L154.818254,6.02770244 C154.818254,7.08419024 154.564498,7.95740976 154.055327,8.64984878 C153.546985,9.34062927 152.86201,9.86887317 152.0004,10.2345805 L155.269376,15.0103366 L150.885034,15.0103366 L148.126059,10.8615073 L148.086254,10.8615073 L146.461717,10.8615073 L146.461717,15.0103366 L142.665327,15.0103366 L142.665327,1.31082439 Z" id="Fill-20" fill="#0D2132" mask="url(#mask-2)"></path>
                    <polygon id="Fill-21" fill="#0D2132" mask="url(#mask-2)" points="157.928507 1.31057561 161.940507 1.31057561 165.208654 6.61457561 168.477629 1.31057561 172.489629 1.31057561 172.489629 15.0100878 168.712312 15.0100878 168.712312 7.14281951 165.218605 12.5048683 165.140654 12.5048683 161.66602 7.18096585 161.66602 15.0100878 157.928507 15.0100878"></polygon>
                    <path d="M183.651249,9.62714146 L182.125395,5.73206829 L180.579639,9.62714146 L183.651249,9.62714146 Z M180.324224,1.2125561 L183.984615,1.2125561 L189.816859,15.009922 L185.745151,15.009922 L184.747541,12.5635805 L179.462615,12.5635805 L178.485737,15.009922 L174.49281,15.009922 L180.324224,1.2125561 Z" id="Fill-22" fill="#0D2132" mask="url(#mask-2)"></path>
                    <polygon id="Fill-23" fill="#0D2132" mask="url(#mask-2)" points="191.85321 1.31057561 195.402478 1.31057561 201.052283 8.55174634 201.052283 1.31057561 204.790624 1.31057561 204.790624 15.0100878 201.456137 15.0100878 195.591551 7.49525854 195.591551 15.0100878 191.85321 15.0100878"></polygon>
                    <path d="M213.812649,15.2830829 C212.833283,15.2830829 211.913624,15.107278 211.053673,14.754839 C210.192063,14.4024 209.444893,13.9114732 208.812161,13.2779122 C208.179429,12.6460098 207.677722,11.8946927 207.304551,11.0264488 C206.933039,10.1598634 206.747283,9.2161561 206.747283,8.19947317 L206.747283,8.15966829 C206.747283,7.16869268 206.928893,6.23908293 207.295429,5.37083902 C207.661137,4.50342439 208.163673,3.74630244 208.80221,3.10030244 C209.441576,2.45430244 210.202015,1.94927805 211.081868,1.58357073 C211.962551,1.21952195 212.925332,1.03625366 213.96938,1.03625366 C214.673429,1.03625366 215.312795,1.10425366 215.887478,1.24108293 C216.460502,1.37874146 216.986259,1.57444878 217.462259,1.82820488 C217.938259,2.08361951 218.369478,2.38630244 218.754259,2.73874146 C219.139868,3.09035122 219.482356,3.47596098 219.782551,3.8939122 L216.924063,6.10557073 C216.532649,5.60966829 216.102259,5.21742439 215.632063,4.93132683 C215.162698,4.6444 214.595478,4.50010732 213.930405,4.50010732 C213.446941,4.50010732 213.0066,4.59547317 212.608551,4.78371707 C212.210502,4.97361951 211.868015,5.23152195 211.581917,5.55659512 C211.293332,5.88249756 211.069429,6.26727805 210.906063,6.71176585 C210.743527,7.15459512 210.661429,7.62479024 210.661429,8.11986341 L210.661429,8.15966829 C210.661429,8.66883902 210.743527,9.1481561 210.906063,9.59844878 C211.069429,10.0487415 211.293332,10.436839 211.581917,10.7627415 C211.868015,11.0894732 212.210502,11.3473756 212.608551,11.5356195 C213.0066,11.725522 213.446941,11.8200585 213.930405,11.8200585 C214.282015,11.8200585 214.605429,11.7802537 214.89982,11.7023024 C215.192551,11.6243512 215.459576,11.5099122 215.700063,11.3598146 C215.94138,11.2097171 216.171917,11.0330829 216.385868,10.8315707 C216.601478,10.6292293 216.812941,10.4044976 217.021917,10.1557171 L219.878746,12.1907415 C219.552844,12.6352293 219.197917,13.0457171 218.813137,13.425522 C218.427527,13.8036683 217.991332,14.1295707 217.501234,14.4024 C217.011966,14.6777171 216.464649,14.8924976 215.857624,15.0484 C215.2506,15.2051317 214.568941,15.2830829 213.812649,15.2830829" id="Fill-24" fill="#0D2132" mask="url(#mask-2)"></path>
                    <polygon id="Fill-25" fill="#0D2132" mask="url(#mask-2)" points="221.503615 1.31057561 232.503029 1.31057561 232.503029 4.53974634 225.241956 4.53974634 225.241956 6.61457561 231.818054 6.61457561 231.818054 9.60823415 225.241956 9.60823415 225.241956 11.7800878 232.600054 11.7800878 232.600054 15.0100878 221.503615 15.0100878"></polygon>
                    <path d="M17.1173415,12.4867073 C17.1173415,13.1360244 16.9937805,13.7480244 16.7474878,14.3243659 C16.4995366,14.899878 16.1562195,15.4024146 15.7150488,15.8303171 C15.2730488,16.2590488 14.7539268,16.596561 14.1560244,16.8436829 C13.5589512,17.0899756 12.9104634,17.2135366 12.2089024,17.2135366 C11.5073415,17.2135366 10.8580244,17.0899756 10.2609512,16.8436829 C9.66387805,16.596561 9.14807317,16.2615366 8.71602439,15.8369512 C8.28314634,15.4123659 7.94314634,14.9148049 7.69685366,14.343439 C7.45056098,13.7720732 7.32617073,13.1617317 7.32617073,12.5132439 L7.32617073,12.4867073 C7.32617073,11.8373902 7.45056098,11.2253902 7.69685366,10.6490488 C7.94314634,10.0735366 8.28729268,9.571 8.72846341,9.14309756 C9.17046341,8.71436585 9.68958537,8.37685366 10.2874878,8.13056098 C10.8837317,7.88343902 11.533878,7.76070732 12.2346098,7.76070732 C12.9353415,7.76070732 13.5854878,7.88343902 14.182561,8.13056098 C14.7796341,8.37685366 15.295439,8.71270732 15.7274878,9.13646341 C16.1611951,9.56104878 16.4995366,10.0586098 16.7474878,10.6299756 C16.9937805,11.2013415 17.1173415,11.8116829 17.1173415,12.461 L17.1173415,12.4867073 Z M23.520122,7.85109756 C22.9031463,6.4247561 22.0556341,5.18168293 20.9742683,4.12270732 C19.8953902,3.06373171 18.6075366,2.22617073 17.1173415,1.61002439 C15.6263171,0.993878049 14.003439,0.68704878 12.2545122,0.68704878 C10.5022683,0.68704878 8.88270732,0.993878049 7.39168293,1.61002439 C5.899,2.22617073 4.60368293,3.06870732 3.5007561,4.13846341 C2.39865854,5.20821951 1.54119512,6.4612439 0.923390244,7.89919512 C0.308073171,9.33714634 -0.000414634146,10.8663171 -0.000414634146,12.4867073 L-0.000414634146,12.5522195 C-0.000414634146,14.1717805 0.308073171,15.6959756 0.923390244,17.1231463 C1.54119512,18.5486585 2.38704878,19.7917317 3.4692439,20.8507073 C4.54812195,21.9096829 5.83597561,22.7480732 7.32617073,23.3633902 C8.81719512,23.9795366 10.4392439,24.2871951 12.189,24.2871951 C13.9404146,24.2871951 15.5599756,23.9795366 17.051,23.3633902 C18.5445122,22.7480732 19.8398293,21.9047073 20.9419268,20.8349512 C22.0448537,19.7651951 22.9031463,18.5121707 23.520122,17.0742195 C24.1346098,15.6362683 24.4439268,14.1070976 24.4439268,12.4867073 L24.4439268,12.4211951 C24.4439268,10.7999756 24.1346098,9.27660976 23.520122,7.85109756 L23.520122,7.85109756 Z" id="Fill-26" fill="#0D2132" mask="url(#mask-2)"></path>
                    <polygon id="Fill-27" fill="#0D2132" mask="url(#mask-2)" points="27.9269366 1.3182878 37.1774244 1.3182878 44.7129854 13.5475073 52.2485463 1.3182878 61.4990341 1.3182878 61.4990341 32.9059463 52.7917171 32.9059463 52.7917171 14.7648732 44.7353756 27.1292634 44.5554244 27.1292634 36.5463512 14.8560927 36.5463512 32.9059463 27.9269366 32.9059463"></polygon>
                    <path d="M23.8121902,32.9061951 C23.8121902,29.8619512 21.3434585,27.3940488 18.3000439,27.3940488 L6.1438,27.3940488 C3.09872683,27.3940488 0.631653659,29.8619512 0.631653659,32.9061951 L23.8121902,32.9061951 Z" id="Fill-28" fill="#46C3FC" mask="url(#mask-2)"></path>
                </g>
            </g>
        </g>
    </g>
</svg>