<?xml version="1.0" encoding="UTF-8"?>
<svg width="13px" height="13px" viewBox="0 0 13 13" version="1.1" xmlns="http://www.w3.org/2000/svg" xmlns:xlink="http://www.w3.org/1999/xlink">
    <title>plus-single-orange</title>
    <g id="v1" stroke="none" stroke-width="1" fill="none" fill-rule="evenodd">
        <g id="About-Desktop" transform="translate(-260.000000, -1321.000000)" fill="#FF850D" fill-rule="nonzero">
            <g id="Group-2" transform="translate(165.000000, 1078.000000)">
                <path d="M100.496094,255.618637 C100.800781,255.618637 101.09375,255.520981 101.375,255.325669 C101.65625,255.130356 101.90625,254.790512 102.125,254.306137 C102.375,253.603012 102.554688,253.005356 102.664062,252.513169 C102.773438,252.020981 102.867188,251.556137 102.945312,251.118637 C103.398438,251.103012 103.855469,251.083481 104.316406,251.060044 C104.777344,251.036606 105.21875,250.997544 105.640625,250.942856 C106.0625,250.888169 106.449219,250.810044 106.800781,250.708481 C107.152344,250.606919 107.445312,250.478012 107.679688,250.321762 C107.679688,250.181137 107.683594,250.040512 107.691406,249.899887 C107.699219,249.759262 107.6875,249.630356 107.65625,249.513169 C107.625,249.395981 107.558594,249.298325 107.457031,249.2202 C107.355469,249.142075 107.1875,249.087387 106.953125,249.056137 C106.84375,248.743637 106.660156,248.520981 106.402344,248.388169 C106.144531,248.255356 105.859375,248.161606 105.546875,248.106919 C105.234375,248.052231 104.90625,248.020981 104.5625,248.013169 C104.21875,248.005356 103.914062,247.978012 103.648438,247.931137 C103.695312,247.774887 103.746094,247.614731 103.800781,247.450669 C103.855469,247.286606 103.914062,247.118637 103.976562,246.946762 C103.835938,246.884262 103.757812,246.774887 103.742188,246.618637 C103.726562,246.462387 103.734375,246.2827 103.765625,246.079575 C103.796875,245.87645 103.835938,245.673325 103.882812,245.4702 C103.929688,245.267075 103.953125,245.0952 103.953125,244.954575 C103.75,244.8452 103.597656,244.728012 103.496094,244.603012 C103.394531,244.478012 103.3125,244.3452 103.25,244.204575 C103.1875,244.06395 103.125,243.915512 103.0625,243.759262 C103,243.603012 102.898438,243.43895 102.757812,243.267075 C102.492188,243.267075 102.269531,243.310044 102.089844,243.395981 C101.910156,243.481919 101.746094,243.583481 101.597656,243.700669 C101.449219,243.817856 101.308594,243.946762 101.175781,244.087387 L101.039062,244.222804 C100.945312,244.30961 100.846354,244.389471 100.742188,244.462387 C100.773438,244.759262 100.722656,245.040512 100.589844,245.306137 C100.457031,245.571762 100.351562,245.767075 100.273438,245.892075 C100.179688,246.079575 100.148438,246.231919 100.179688,246.349106 C100.210938,246.466294 100.195312,246.62645 100.132812,246.829575 C100.117188,246.9077 100.066406,246.958481 99.9804688,246.981919 C99.8945312,247.005356 99.8359375,247.056137 99.8046875,247.134262 C99.7734375,247.243637 99.7890625,247.368637 99.8515625,247.509262 C99.9140625,247.649887 99.921875,247.821762 99.875,248.024887 C99.65625,248.024887 99.4492188,248.028794 99.2539062,248.036606 C99.0585938,248.044419 98.8515625,248.048325 98.6328125,248.048325 C98.4453125,248.142075 98.2265625,248.208481 97.9765625,248.247544 C97.7265625,248.286606 97.4609375,248.31395 97.1796875,248.329575 C96.8984375,248.3452 96.6132812,248.364731 96.3242188,248.388169 C96.0351562,248.411606 95.765625,248.454575 95.515625,248.517075 C95.578125,248.5952 95.578125,248.716294 95.515625,248.880356 C95.453125,249.044419 95.359375,249.134262 95.234375,249.149887 C95.375,249.274887 95.4648438,249.454575 95.5039062,249.68895 C95.5429688,249.923325 95.53125,250.103012 95.46875,250.228012 C95.578125,250.415512 95.671875,250.5952 95.75,250.767075 C95.828125,250.93895 95.921875,251.091294 96.03125,251.224106 C96.140625,251.356919 96.28125,251.4702 96.453125,251.56395 C96.625,251.6577 96.859375,251.712387 97.15625,251.728012 C97.28125,251.681137 97.4960938,251.62645 97.8007812,251.56395 C98.1054688,251.50145 98.5078125,251.431137 99.0078125,251.353012 C98.9609375,251.665512 98.9101562,251.981919 98.8554688,252.302231 C98.8007812,252.622544 98.7578125,252.942856 98.7265625,253.263169 C98.6953125,253.583481 98.671875,253.884262 98.65625,254.165512 C98.640625,254.446762 98.6484375,254.68895 98.6796875,254.892075 C98.9609375,255.079575 99.2578125,255.247544 99.5703125,255.395981 C99.8828125,255.544419 100.191406,255.618637 100.496094,255.618637 Z" id="plus-single-orange"></path>
            </g>
        </g>
    </g>
</svg>