<?xml version="1.0" encoding="UTF-8"?>
<svg width="307px" height="39px" viewBox="0 0 307 39" version="1.1" xmlns="http://www.w3.org/2000/svg" xmlns:xlink="http://www.w3.org/1999/xlink">
    <title>yellow-marker-small</title>
    <defs>
        <polygon id="path-1" points="0 0 307 0 307 39 0 39"></polygon>
    </defs>
    <g id="v1" stroke="none" stroke-width="1" fill="none" fill-rule="evenodd">
        <g id="Healthcare-Desktop" transform="translate(-135.000000, -1018.000000)">
            <g id="yellow-marker-small" transform="translate(135.000000, 1018.000000)">
                <mask id="mask-2" fill="white">
                    <use xlink:href="#path-1"></use>
                </mask>
                <g id="Clip-2"></g>
                <path d="M308.194754,9.23472232 C271.696803,9.4807786 235.198852,9.72538749 198.699683,9.97144377 C197.749184,5.86085652 194.939118,2.50870156 190.24877,2.65344055 C161.871494,3.53779577 133.494219,4.42359837 105.118162,5.30795359 C91.8477304,5.7204597 78.4639704,6.45139159 65.2374084,4.72610285 C51.1895175,2.89225988 38.3931173,-2.78874538 24.0893229,-0.439631614 C21.0623485,0.0582705036 18.8725445,3.11226314 17.931794,6.58020929 C13.5521861,6.98547845 10,12.4624017 10,17.4385281 C10,23.8186227 14.2102241,27.6773641 19.1394154,28.2939522 C20.438431,28.4560599 21.7386652,28.5935619 23.0376808,28.7513274 C24.4902385,31.1684685 26.8518635,32.837309 30.1298672,32.8155982 C39.7884014,32.7504656 49.4457171,32.6853331 59.1030327,32.6202006 C141.995094,40.3058408 225.353874,39.764517 308.194754,30.9455705 C319.711636,29.7181839 320.156421,9.15366849 308.194754,9.23472232" id="Fill-1" fill="#F4EB2D" mask="url(#mask-2)"></path>
            </g>
        </g>
    </g>
</svg>